<?xml version="1.0" encoding="UTF-8"?>
<svg xmlns="http://www.w3.org/2000/svg" xmlns:xlink="http://www.w3.org/1999/xlink" width="128px" height="128px" viewBox="0 0 128 128" version="1.1">
<g id="surface1">
<path style=" stroke:none;fill-rule:evenodd;fill:rgb(0%,0%,0%);fill-opacity:1;" d="M 62.578125 91.5 C 62.578125 94.867188 59.710938 97.597656 56.179688 97.597656 C 52.644531 97.597656 49.777344 94.867188 49.777344 91.5 C 49.777344 88.136719 52.644531 85.40625 56.179688 85.40625 C 59.710938 85.40625 62.578125 88.136719 62.578125 91.5 M 36.980469 33.523438 C 36.980469 30.160156 39.847656 27.429688 43.378906 27.429688 L 79.921875 27.429688 C 85.265625 27.429688 89.601562 31.554688 89.601562 36.644531 L 89.601562 51.808594 C 89.601562 58.515625 83.839844 64 76.800781 64 L 67.257812 64 C 65.460938 64 64 65.390625 64 67.101562 L 64 73.214844 C 64 76.582031 61.140625 79.3125 57.601562 79.3125 C 54.066406 79.3125 51.199219 76.582031 51.199219 73.214844 L 51.199219 62.648438 C 51.199219 56.660156 56.292969 51.808594 62.578125 51.808594 L 68.980469 51.808594 C 72.511719 51.808594 75.378906 49.078125 75.378906 45.714844 C 75.378906 42.351562 72.511719 39.617188 68.980469 39.617188 L 43.378906 39.617188 C 39.847656 39.617188 36.980469 36.886719 36.980469 33.523438 M 108.800781 112.761719 L 19.199219 112.761719 C 15.667969 112.761719 12.800781 110.03125 12.800781 106.667969 L 12.800781 21.332031 C 12.800781 17.96875 15.667969 15.238281 19.199219 15.238281 L 108.800781 15.238281 C 112.339844 15.238281 115.199219 17.96875 115.199219 21.332031 L 115.199219 106.667969 C 115.199219 110.03125 112.339844 112.761719 108.800781 112.761719 M 0 15.238281 L 0 112.761719 C 0 119.496094 5.734375 124.953125 12.800781 124.953125 L 115.199219 124.953125 C 122.273438 124.953125 128 119.496094 128 112.761719 L 128 15.238281 C 128 8.507812 122.273438 3.046875 115.199219 3.046875 L 12.800781 3.046875 C 5.734375 3.046875 0 8.507812 0 15.238281 "/>
</g>
</svg>
